<?xml version="1.0" encoding="UTF-8"?><svg id="what_to_do" xmlns="http://www.w3.org/2000/svg" viewBox="0 0 113.58 132.08"><defs><style>.cls-1{fill:none;stroke:#000;stroke-miterlimit:10;stroke-width:2px;}</style></defs><g><path d="M64.53,73.48c-.47-.59-1.1-1.03-1.9-1.31-.8-.28-1.56-.42-2.27-.42-.42,0-.85,.05-1.29,.15-.44,.1-.86,.25-1.25,.46-.39,.21-.71,.49-.96,.83-.25,.35-.37,.76-.37,1.26,0,.79,.3,1.39,.89,1.81,.59,.42,1.33,.77,2.23,1.07,.9,.29,1.86,.59,2.9,.89,1.03,.3,2,.71,2.9,1.26,.9,.54,1.64,1.27,2.23,2.18,.59,.91,.89,2.13,.89,3.65s-.27,2.72-.81,3.8c-.54,1.08-1.27,1.98-2.19,2.7-.92,.71-1.99,1.24-3.21,1.59-1.22,.34-2.5,.52-3.86,.52-1.7,0-3.27-.26-4.73-.78-1.45-.52-2.81-1.35-4.06-2.51l4.1-4.5c.59,.79,1.33,1.4,2.23,1.83,.9,.43,1.83,.65,2.79,.65,.47,0,.94-.05,1.42-.17,.48-.11,.91-.28,1.29-.5,.38-.22,.69-.5,.92-.85,.23-.34,.35-.75,.35-1.22,0-.79-.3-1.41-.91-1.86-.6-.46-1.36-.84-2.27-1.16s-1.89-.64-2.95-.96c-1.06-.32-2.04-.75-2.95-1.29s-1.67-1.25-2.27-2.14c-.6-.89-.91-2.05-.91-3.51s.28-2.63,.83-3.69c.56-1.06,1.29-1.94,2.22-2.66,.92-.71,1.99-1.25,3.19-1.61,1.21-.36,2.45-.53,3.73-.53,1.48,0,2.9,.21,4.28,.63,1.38,.42,2.62,1.12,3.73,2.1l-3.95,4.32Z"/><line class="cls-1" x1="59.08" y1="68.55" x2="59.08" y2="62.95"/><line class="cls-1" x1="59.08" y1="97.79" x2="59.08" y2="92.19"/></g><g><polyline class="cls-1" points="0 58.02 22.04 58.02 22.04 16.82 0 16.82"/><path class="cls-1" d="M22.05,22.27c5.28-1.44,11.25-3.79,11.12-6.9-.2-5.56,11.95-8.65,10.92-5.14-1.03,3.5,5.36,10.92,5.36,10.92h24.3l.83,7.81-7,1.03h9.68v8.45h-3.28"/><polyline class="cls-1" points="67.99 38.44 73.97 38.44 73.97 47.92 72.11 47.92"/><path class="cls-1" d="M65.94,47.92h6.17l.83,8.45s-.68,.02-1.88,.04c-4.53,.11-16.37,.42-25.3,.81-5.71,.24-10.24,.5-10.94,.79-1.14,.46-7.44-2.74-12.76-5.65"/><path class="cls-1" d="M80.76,109.94c-6.79-.83-10.7,.55-18.3-1.53-10.42-2.85-17.02-4.27-23.83-10.62-.26-.24-3.88-4.79-4.12-5.03-7.86-7.86,2.89-25.4,11.25-35.53"/><path class="cls-1" d="M83.95,100.41c5.47-18.32-4.18-35.41-12.89-43.99h-.02"/><path class="cls-1" d="M69.17,109.55c-9.93-5.17-7.11-12.85,3.82-9.9,10.2,2.76,17.54-4.66,39.94,14.83"/><path class="cls-1" d="M38.62,97.79c-.66,6.06-1.89,6.78,3.4,10.4,9.04,6.18,18.9,12.26,21.54,12.67s22.22,5.25,33.68,10.32"/><path class="cls-1" d="M69.66,21.15c4.4-15.85-9.3-15.67-9.3-15.67-13.33-11.1-15.83,1.6-16.22,4.27-.02,.31-.04,.48-.04,.48"/></g></svg>