<?xml version="1.0" encoding="utf-8"?>
<!-- Generator: Adobe Illustrator 27.0.1, SVG Export Plug-In . SVG Version: 6.00 Build 0)  -->
<svg version="1.1" id="what_to_do" xmlns="http://www.w3.org/2000/svg" xmlns:xlink="http://www.w3.org/1999/xlink" x="0px" y="0px"
	 viewBox="0 0 113.6 132.1" style="enable-background:new 0 0 113.6 132.1;" xml:space="preserve">
<style type="text/css">
	.st0{fill:none;stroke:#000000;stroke-width:2;stroke-miterlimit:10;}
	.st1{fill:none;stroke:#000000;stroke-width:4;stroke-linecap:round;stroke-miterlimit:10;}
	.st2{stroke:#000000;}
	.st3{stroke:#000000;stroke-width:3;stroke-linecap:round;stroke-miterlimit:10;}
</style>
<path class="st0" d="M102.8,75.3c0,5.4-0.9,10.6-2.6,15.4C90.3,93.4,80,102.3,71.9,104c2.2-13.8-10.8-13-10.8-13
	c-18.5-1.8-19.8-3.2-19.8-3.2c-5.8-4-11.2-6.1-15.7-7h0c-0.2-1.8-0.3-3.6-0.3-5.5c0-18.9,11.1-35,26.4-40.7c0.7,0.7,1.6,1.1,2.7,1.1
	c5.7,1.8,11.9,1.8,17.6,0c1.1,0,2.1-0.4,2.8-1.2c0.1-0.1,0.2-0.2,0.3-0.3C91.1,39.4,102.8,55.8,102.8,75.3z"/>
<line class="st0" x1="71.9" y1="104" x2="52.6" y2="104"/>
<path d="M17.5,75.6v41.9c0,1.5-1.2,2.7-2.7,2.7H4.8c-1.5,0-2.7-1.2-2.7-2.7V75.6c0-1.5,1.2-2.7,2.7-2.7h10.1
	C16.4,73,17.5,74.2,17.5,75.6z"/>
<path class="st0" d="M108.5,99.4L72.6,121c-1.2,0.7-2.6,1.1-4.1,1.1H41.3c-1,0-2.1-0.2-3.1-0.5L17.5,114V80c2.2-0.1,4.9,0.1,8,0.8h0
	c4.5,1,9.9,3,15.7,7c0,0,1.3,1.4,19.8,3.2c0,0,13-0.8,10.8,13c8.1-1.7,18.4-10.6,28.3-13.3c1.4-0.4,2.9-0.7,4.3-0.8
	c7.5-0.5,7.5,3.5,6.6,6.2C110.6,97.5,109.7,98.6,108.5,99.4z"/>
<path class="st0" d="M78.6,11.1c-1.2,10.4-4.1,14.4-5.7,16.7c-0.3-0.1-0.6-0.1-1-0.1l-4.5,0.9c-3.4,0.7-6.9,0.6-10.3-0.2l-2-0.5
	c-1.6-2.3-4.5-6.3-5.8-16.8l4.8,1.2l4.4-2.3l5.4,2.1l5.4-2.1l4.4,2.3L78.6,11.1z"/>
<path d="M75.9,31.6c0,0.9-0.3,1.8-0.8,2.4c-0.1,0.1-0.2,0.2-0.3,0.3c-0.7,0.7-1.7,1.2-2.8,1.2c-5.7,1.8-11.9,1.8-17.6,0
	c-1,0-2-0.4-2.7-1.1c0,0-0.1-0.1-0.1-0.1c-0.7-0.7-1.2-1.7-1.2-2.8c0-1.1,0.4-2.1,1.2-2.8c0.7-0.7,1.7-1.2,2.8-1.2l0.8,0.2l2,0.5
	c3.4,0.8,6.9,0.9,10.3,0.2l4.5-0.9c0.3,0,0.7,0,1,0.1C74.6,28.2,75.9,29.8,75.9,31.6z"/>
<path class="st1" d="M52.6,31c0,0-1.5-4.8-8.1-6.2c-6.6-1.3-5.4,1.9-12.9-2.5"/>
<path class="st1" d="M54.5,31c0,0-17.3-0.8-20.4,7.3"/>
<g>
	<path class="st2" d="M53.5,75.6c1.9,1.2,4.7,2.1,7.6,2.1c4.3,0,6.9-2.3,6.9-5.6c0-3.1-1.7-4.8-6.2-6.5c-5.3-1.9-8.6-4.7-8.6-9.3
		c0-5.1,4.2-8.9,10.6-8.9c3.4,0,5.8,0.8,7.2,1.6l-1.2,3.4c-1.1-0.6-3.3-1.6-6.2-1.6c-4.5,0-6.2,2.7-6.2,4.9c0,3.1,2,4.6,6.5,6.3
		c5.5,2.1,8.4,4.8,8.4,9.6c0,5.1-3.7,9.4-11.5,9.4c-3.2,0-6.6-0.9-8.4-2.1L53.5,75.6z"/>
</g>
<line class="st3" x1="62.3" y1="43.5" x2="62.3" y2="85"/>
</svg>
