<?xml version="1.0" encoding="UTF-8"?><svg id="Layer_1" xmlns="http://www.w3.org/2000/svg" viewBox="0 0 103.99 53.35"><defs><style>.cls-1{stroke-width:3px;}.cls-1,.cls-2{fill:none;stroke:#000;stroke-miterlimit:10;}.cls-2{stroke-width:2px;}</style></defs><g><path d="M57.44,19.79c-.47-.59-1.1-1.03-1.9-1.31-.8-.28-1.56-.42-2.27-.42-.42,0-.85,.05-1.29,.15-.44,.1-.86,.25-1.25,.46-.39,.21-.71,.49-.96,.83-.25,.35-.37,.76-.37,1.26,0,.79,.3,1.39,.89,1.81,.59,.42,1.33,.77,2.23,1.07,.9,.29,1.86,.59,2.9,.89,1.03,.3,2,.71,2.9,1.26,.9,.54,1.64,1.27,2.23,2.18,.59,.91,.89,2.13,.89,3.65s-.27,2.72-.81,3.8c-.54,1.08-1.27,1.98-2.19,2.7-.92,.71-1.99,1.24-3.21,1.59-1.22,.34-2.5,.52-3.86,.52-1.7,0-3.27-.26-4.73-.78s-2.81-1.35-4.06-2.51l4.1-4.5c.59,.79,1.33,1.4,2.23,1.83,.9,.43,1.83,.65,2.79,.65,.47,0,.94-.05,1.42-.17,.48-.11,.91-.28,1.29-.5,.38-.22,.69-.5,.92-.85,.23-.34,.35-.75,.35-1.22,0-.79-.3-1.41-.91-1.86-.6-.46-1.36-.84-2.27-1.16s-1.89-.64-2.95-.96-2.04-.75-2.95-1.29-1.67-1.25-2.27-2.14c-.6-.89-.91-2.05-.91-3.51s.28-2.63,.83-3.69c.56-1.06,1.29-1.94,2.22-2.66s1.99-1.25,3.19-1.61c1.21-.36,2.45-.53,3.73-.53,1.48,0,2.9,.21,4.28,.63,1.38,.42,2.62,1.12,3.73,2.1l-3.95,4.32Z"/><line class="cls-2" x1="51.99" y1="14.85" x2="51.99" y2="9.26"/><line class="cls-2" x1="51.99" y1="44.1" x2="51.99" y2="38.5"/></g><rect class="cls-1" x="1.5" y="1.5" width="100.99" height="50.35" rx="3.42" ry="3.42"/><g><rect x="14.85" y="25.4" width="2.55" height="2.55"/><rect x="86.59" y="25.4" width="2.55" height="2.55"/></g></svg>