<?xml version="1.0" encoding="UTF-8"?><svg id="Layer_1" xmlns="http://www.w3.org/2000/svg" viewBox="0 0 67.79 72.02"><defs><style>.cls-1{fill:none;stroke:#000;stroke-miterlimit:10;stroke-width:2px;}</style></defs><polygon class="cls-1" points="40.06 14.21 40.06 61.62 39.79 61.62 33.89 56.88 29.08 61.62 28.92 61.62 28.92 14.21 40.06 14.21"/><g><polygon class="cls-1" points="63.01 26.38 63.01 71.02 4.78 71.02 4.78 26.38 28.92 26.38 28.92 61.62 29.08 61.62 33.89 56.88 39.79 61.62 40.06 61.62 40.06 26.38 63.01 26.38"/><rect class="cls-1" x="1" y="14.21" width="27.92" height="12.17"/><rect class="cls-1" x="40.06" y="14.21" width="26.73" height="12.17"/><path class="cls-1" d="M43.49,14.21h-8.43c1.68-5.3,6.7-19.02,11.49-10.47,2.37,4.25,.27,7.77-3.06,10.47Z"/><path class="cls-1" d="M32.39,14.21h-8.42c-3.33-2.69-5.43-6.22-3.06-10.47,4.77-8.55,9.8,5.17,11.47,10.47Z"/></g></svg>