<?xml version="1.0" encoding="UTF-8"?><svg id="Layer_1" xmlns="http://www.w3.org/2000/svg" viewBox="0 0 66.4 59.28"><defs><style>.cls-1{fill:none;stroke:#000;stroke-miterlimit:10;stroke-width:2px;}</style></defs><path class="cls-1" d="M19.57,15.57c.27-.88,.42-1.82,.42-2.79V6.28C24.53,2.96,30.12,1,36.16,1c8.81,0,16.64,4.14,21.66,10.58"/><path class="cls-1" d="M9.41,22.22c.36,.04,.72,.06,1.08,.06,2.57,0,4.92-1.04,6.63-2.71"/><path class="cls-1" d="M9.21,23.17c.43-.54,1.1-.89,1.85-.89,1.3,0,2.36,1.06,2.36,2.37v19.24c4.95,7.27,13.29,12.05,22.74,12.05,10.69,0,19.94-6.09,24.48-15"/><path class="cls-1" d="M19.57,15.57c3.84-4.94,9.84-8.12,16.59-8.12,11.61,0,21.02,9.41,21.02,21.02s-9.41,21.02-21.02,21.02S15.14,40.08,15.14,28.47c0-3.18,.71-6.2,1.98-8.9"/><path class="cls-1" d="M8.69,28.47v27.44c0,1.3,1.06,2.37,2.37,2.37,.65,0,1.24-.27,1.67-.7s.69-1.02,.69-1.67V24.65c0-1.31-1.06-2.37-2.36-2.37-.75,0-1.42,.35-1.85,.89"/><path class="cls-1" d="M8.69,28.47v-3.82c0-.56,.2-1.07,.52-1.48"/><path class="cls-1" d="M65.38,29.41v26.5c0,.65-.27,1.24-.7,1.67-.43,.43-1.02,.7-1.67,.7-1.3,0-2.37-1.07-2.37-2.37V29.41h4.74Z"/><path class="cls-1" d="M65.38,24.65v4.76l-.08-5.36c.05,.19,.08,.39,.08,.6Z"/><path class="cls-1" d="M1,2.23V12.78c0,2.73,1.17,5.21,3.03,6.94,1.45,1.35,3.32,2.26,5.38,2.5,.36,.04,.72,.06,1.08,.06,2.57,0,4.92-1.04,6.63-2.71,1.12-1.1,1.98-2.47,2.45-4,.27-.88,.42-1.82,.42-2.79V2.23"/><line class="cls-1" x1="5.28" y1="15.78" x2="5.28" y2="2.23"/><line class="cls-1" x1="9.71" y1="2.23" x2="9.71" y2="15.78"/><line class="cls-1" x1="14.28" y1="2.23" x2="14.28" y2="15.78"/><path class="cls-1" d="M65.38,29.41h-7.56V8.02s1.06-6.42,7.13-6.21l.35,22.24,.08,5.36Z"/></svg>